<svg width="214" height="473" viewBox="0 0 214 473" fill="none" xmlns="http://www.w3.org/2000/svg">
<circle cx="210.472" cy="469.154" r="3.52747" transform="rotate(-180 210.472 469.154)" fill="#70C217"/>
<circle cx="158.736" cy="469.154" r="3.52747" transform="rotate(-180 158.736 469.154)" fill="#70C217"/>
<circle cx="107" cy="469.154" r="3.52747" transform="rotate(-180 107 469.154)" fill="#70C217"/>
<circle cx="55.2638" cy="469.154" r="3.52747" transform="rotate(-180 55.2638 469.154)" fill="#70C217"/>
<circle cx="3.52749" cy="469.154" r="3.52747" transform="rotate(-180 3.52749 469.154)" fill="#70C217"/>
<circle cx="210.473" cy="417.418" r="3.52747" transform="rotate(-180 210.473 417.418)" fill="#70C217"/>
<circle cx="158.736" cy="417.418" r="3.52747" transform="rotate(-180 158.736 417.418)" fill="#70C217"/>
<circle cx="107" cy="417.418" r="3.52747" transform="rotate(-180 107 417.418)" fill="#70C217"/>
<circle cx="55.2638" cy="417.418" r="3.52747" transform="rotate(-180 55.2638 417.418)" fill="#70C217"/>
<circle cx="3.52749" cy="417.418" r="3.52747" transform="rotate(-180 3.52749 417.418)" fill="#70C217"/>
<circle cx="210.473" cy="365.681" r="3.52747" transform="rotate(-180 210.473 365.681)" fill="#70C217"/>
<circle cx="158.736" cy="365.681" r="3.52747" transform="rotate(-180 158.736 365.681)" fill="#70C217"/>
<circle cx="107" cy="365.681" r="3.52747" transform="rotate(-180 107 365.681)" fill="#70C217"/>
<circle cx="55.2638" cy="365.681" r="3.52747" transform="rotate(-180 55.2638 365.681)" fill="#70C217"/>
<circle cx="3.52749" cy="365.681" r="3.52747" transform="rotate(-180 3.52749 365.681)" fill="#70C217"/>
<circle cx="210.473" cy="313.945" r="3.52747" transform="rotate(-180 210.473 313.945)" fill="#70C217"/>
<circle cx="158.736" cy="313.945" r="3.52747" transform="rotate(-180 158.736 313.945)" fill="#70C217"/>
<circle cx="107" cy="313.945" r="3.52747" transform="rotate(-180 107 313.945)" fill="#70C217"/>
<circle cx="55.2638" cy="313.945" r="3.52747" transform="rotate(-180 55.2638 313.945)" fill="#70C217"/>
<circle cx="3.52749" cy="313.945" r="3.52747" transform="rotate(-180 3.52749 313.945)" fill="#70C217"/>
<circle cx="210.473" cy="262.209" r="3.52747" transform="rotate(-180 210.473 262.209)" fill="#70C217"/>
<circle cx="158.736" cy="262.209" r="3.52747" transform="rotate(-180 158.736 262.209)" fill="#70C217"/>
<circle cx="107" cy="262.209" r="3.52747" transform="rotate(-180 107 262.209)" fill="#70C217"/>
<circle cx="55.2638" cy="262.209" r="3.52747" transform="rotate(-180 55.2638 262.209)" fill="#70C217"/>
<circle cx="3.52749" cy="262.209" r="3.52747" transform="rotate(-180 3.52749 262.209)" fill="#70C217"/>
<circle cx="210.473" cy="210.473" r="3.52747" transform="rotate(-180 210.473 210.473)" fill="#70C217"/>
<circle cx="158.736" cy="210.473" r="3.52747" transform="rotate(-180 158.736 210.473)" fill="#70C217"/>
<circle cx="107" cy="210.473" r="3.52747" transform="rotate(-180 107 210.473)" fill="#70C217"/>
<circle cx="55.2638" cy="210.473" r="3.52747" transform="rotate(-180 55.2638 210.473)" fill="#70C217"/>
<circle cx="3.52749" cy="210.473" r="3.52747" transform="rotate(-180 3.52749 210.473)" fill="#70C217"/>
<circle cx="210.473" cy="158.736" r="3.52747" transform="rotate(-180 210.473 158.736)" fill="#70C217"/>
<circle cx="158.736" cy="158.736" r="3.52747" transform="rotate(-180 158.736 158.736)" fill="#70C217"/>
<circle cx="107" cy="158.736" r="3.52747" transform="rotate(-180 107 158.736)" fill="#70C217"/>
<circle cx="55.2638" cy="158.736" r="3.52747" transform="rotate(-180 55.2638 158.736)" fill="#70C217"/>
<circle cx="3.52749" cy="158.736" r="3.52747" transform="rotate(-180 3.52749 158.736)" fill="#70C217"/>
<circle cx="210.473" cy="107" r="3.52747" transform="rotate(-180 210.473 107)" fill="#70C217"/>
<circle cx="158.736" cy="107" r="3.52747" transform="rotate(-180 158.736 107)" fill="#70C217"/>
<circle cx="107" cy="107" r="3.52747" transform="rotate(-180 107 107)" fill="#70C217"/>
<circle cx="55.2638" cy="107" r="3.52747" transform="rotate(-180 55.2638 107)" fill="#70C217"/>
<circle cx="3.52749" cy="107" r="3.52747" transform="rotate(-180 3.52749 107)" fill="#70C217"/>
<circle cx="210.473" cy="55.2638" r="3.52747" transform="rotate(-180 210.473 55.2638)" fill="#70C217"/>
<circle cx="158.736" cy="55.2638" r="3.52747" transform="rotate(-180 158.736 55.2638)" fill="#70C217"/>
<circle cx="107" cy="55.2638" r="3.52747" transform="rotate(-180 107 55.2638)" fill="#70C217"/>
<circle cx="55.2638" cy="55.2638" r="3.52747" transform="rotate(-180 55.2638 55.2638)" fill="#70C217"/>
<circle cx="3.52749" cy="55.2638" r="3.52747" transform="rotate(-180 3.52749 55.2638)" fill="#70C217"/>
<circle cx="210.473" cy="3.52755" r="3.52747" transform="rotate(-180 210.473 3.52755)" fill="#70C217"/>
<circle cx="158.736" cy="3.52749" r="3.52747" transform="rotate(-180 158.736 3.52749)" fill="#70C217"/>
<circle cx="107" cy="3.52749" r="3.52747" transform="rotate(-180 107 3.52749)" fill="#70C217"/>
<circle cx="55.2638" cy="3.52749" r="3.52747" transform="rotate(-180 55.2638 3.52749)" fill="#70C217"/>
<circle cx="3.52749" cy="3.52749" r="3.52747" transform="rotate(-180 3.52749 3.52749)" fill="#70C217"/>
</svg>
