<svg width="553" height="251" viewBox="0 0 553 251" fill="none" xmlns="http://www.w3.org/2000/svg">
<circle cx="548.873" cy="4.12711" r="4.12686" transform="rotate(90 548.873 4.12711)" fill="#29AAF3"/>
<circle cx="548.873" cy="64.6543" r="4.12686" transform="rotate(90 548.873 64.6543)" fill="#29AAF3"/>
<circle cx="548.873" cy="125.182" r="4.12686" transform="rotate(90 548.873 125.182)" fill="#29AAF3"/>
<circle cx="548.873" cy="185.709" r="4.12686" transform="rotate(90 548.873 185.709)" fill="#29AAF3"/>
<circle cx="548.873" cy="246.236" r="4.12686" transform="rotate(90 548.873 246.236)" fill="#29AAF3"/>
<circle cx="488.346" cy="4.12686" r="4.12686" transform="rotate(90 488.346 4.12686)" fill="#29AAF3"/>
<circle cx="488.346" cy="64.6543" r="4.12686" transform="rotate(90 488.346 64.6543)" fill="#29AAF3"/>
<circle cx="488.346" cy="125.182" r="4.12686" transform="rotate(90 488.346 125.182)" fill="#29AAF3"/>
<circle cx="488.346" cy="185.709" r="4.12686" transform="rotate(90 488.346 185.709)" fill="#29AAF3"/>
<circle cx="488.346" cy="246.236" r="4.12686" transform="rotate(90 488.346 246.236)" fill="#29AAF3"/>
<circle cx="427.818" cy="4.12686" r="4.12686" transform="rotate(90 427.818 4.12686)" fill="#29AAF3"/>
<circle cx="427.818" cy="64.6543" r="4.12686" transform="rotate(90 427.818 64.6543)" fill="#29AAF3"/>
<circle cx="427.818" cy="125.182" r="4.12686" transform="rotate(90 427.818 125.182)" fill="#29AAF3"/>
<circle cx="427.818" cy="185.709" r="4.12686" transform="rotate(90 427.818 185.709)" fill="#29AAF3"/>
<circle cx="427.818" cy="246.236" r="4.12686" transform="rotate(90 427.818 246.236)" fill="#29AAF3"/>
<circle cx="367.291" cy="4.12686" r="4.12686" transform="rotate(90 367.291 4.12686)" fill="#29AAF3"/>
<circle cx="367.291" cy="64.6543" r="4.12686" transform="rotate(90 367.291 64.6543)" fill="#29AAF3"/>
<circle cx="367.291" cy="125.182" r="4.12686" transform="rotate(90 367.291 125.182)" fill="#29AAF3"/>
<circle cx="367.291" cy="185.709" r="4.12686" transform="rotate(90 367.291 185.709)" fill="#29AAF3"/>
<circle cx="367.291" cy="246.236" r="4.12686" transform="rotate(90 367.291 246.236)" fill="#29AAF3"/>
<circle cx="306.764" cy="4.12686" r="4.12686" transform="rotate(90 306.764 4.12686)" fill="#29AAF3"/>
<circle cx="306.764" cy="64.6543" r="4.12686" transform="rotate(90 306.764 64.6543)" fill="#29AAF3"/>
<circle cx="306.764" cy="125.182" r="4.12686" transform="rotate(90 306.764 125.182)" fill="#29AAF3"/>
<circle cx="306.764" cy="185.709" r="4.12686" transform="rotate(90 306.764 185.709)" fill="#29AAF3"/>
<circle cx="306.764" cy="246.236" r="4.12686" transform="rotate(90 306.764 246.236)" fill="#29AAF3"/>
<circle cx="246.237" cy="4.12686" r="4.12686" transform="rotate(90 246.237 4.12686)" fill="#29AAF3"/>
<circle cx="246.237" cy="64.6543" r="4.12686" transform="rotate(90 246.237 64.6543)" fill="#29AAF3"/>
<circle cx="246.237" cy="125.182" r="4.12686" transform="rotate(90 246.237 125.182)" fill="#29AAF3"/>
<circle cx="246.237" cy="185.709" r="4.12686" transform="rotate(90 246.237 185.709)" fill="#29AAF3"/>
<circle cx="246.237" cy="246.236" r="4.12686" transform="rotate(90 246.237 246.236)" fill="#29AAF3"/>
<circle cx="185.709" cy="4.12686" r="4.12686" transform="rotate(90 185.709 4.12686)" fill="#29AAF3"/>
<circle cx="185.709" cy="64.6543" r="4.12686" transform="rotate(90 185.709 64.6543)" fill="#29AAF3"/>
<circle cx="185.709" cy="125.182" r="4.12686" transform="rotate(90 185.709 125.182)" fill="#29AAF3"/>
<circle cx="185.709" cy="185.709" r="4.12686" transform="rotate(90 185.709 185.709)" fill="#29AAF3"/>
<circle cx="185.709" cy="246.236" r="4.12686" transform="rotate(90 185.709 246.236)" fill="#29AAF3"/>
<circle cx="125.182" cy="4.12686" r="4.12686" transform="rotate(90 125.182 4.12686)" fill="#29AAF3"/>
<circle cx="125.182" cy="64.6543" r="4.12686" transform="rotate(90 125.182 64.6543)" fill="#29AAF3"/>
<circle cx="125.182" cy="125.182" r="4.12686" transform="rotate(90 125.182 125.182)" fill="#29AAF3"/>
<circle cx="125.182" cy="185.709" r="4.12686" transform="rotate(90 125.182 185.709)" fill="#29AAF3"/>
<circle cx="125.182" cy="246.236" r="4.12686" transform="rotate(90 125.182 246.236)" fill="#29AAF3"/>
<circle cx="64.6541" cy="4.12686" r="4.12686" transform="rotate(90 64.6541 4.12686)" fill="#29AAF3"/>
<circle cx="64.6541" cy="64.6543" r="4.12686" transform="rotate(90 64.6541 64.6543)" fill="#29AAF3"/>
<circle cx="64.6541" cy="125.182" r="4.12686" transform="rotate(90 64.6541 125.182)" fill="#29AAF3"/>
<circle cx="64.6541" cy="185.709" r="4.12686" transform="rotate(90 64.6541 185.709)" fill="#29AAF3"/>
<circle cx="64.6541" cy="246.236" r="4.12686" transform="rotate(90 64.6541 246.236)" fill="#29AAF3"/>
<circle cx="4.12687" cy="4.12686" r="4.12686" transform="rotate(90 4.12687 4.12686)" fill="#29AAF3"/>
<circle cx="4.12687" cy="64.6543" r="4.12686" transform="rotate(90 4.12687 64.6543)" fill="#29AAF3"/>
<circle cx="4.12687" cy="125.182" r="4.12686" transform="rotate(90 4.12687 125.182)" fill="#29AAF3"/>
<circle cx="4.12691" cy="185.709" r="4.12686" transform="rotate(90 4.12691 185.709)" fill="#29AAF3"/>
<circle cx="4.12691" cy="246.236" r="4.12686" transform="rotate(90 4.12691 246.236)" fill="#29AAF3"/>
</svg>
