<svg width="37" height="34" viewBox="0 0 37 34" fill="none" xmlns="http://www.w3.org/2000/svg">
<path fill-rule="evenodd" clip-rule="evenodd" d="M9.86806 7.40013H35.1506C35.4493 7.40112 35.7435 7.47424 36.0079 7.61328C36.2724 7.75231 36.4993 7.95315 36.6695 8.19872C36.8397 8.44429 36.9481 8.72732 36.9854 9.02376C37.0228 9.32019 36.988 9.62126 36.884 9.90137L31.334 24.7016C31.062 25.4213 30.3719 25.9004 29.6005 25.9004H14.8002C14.0547 25.9004 13.3794 25.4509 13.0927 24.7627L4.31797 3.70007H0V9.39183e-06H4.31612C5.04698 -0.00163903 5.76188 0.21374 6.3702 0.618847C6.97852 1.02395 7.45287 1.60055 7.73312 2.27555L9.86806 7.40013ZM24.0504 18.5003H27.7504V14.8002H24.0504V11.1002H20.3503V14.8002H16.6503V18.5003H20.3503V22.2004H24.0504V18.5003ZM15.7252 33.3005C17.2578 33.3005 18.5002 32.058 18.5002 30.5254C18.5002 28.9928 17.2578 27.7504 15.7252 27.7504C14.1926 27.7504 12.9502 28.9928 12.9502 30.5254C12.9502 32.058 14.1926 33.3005 15.7252 33.3005ZM28.6754 33.3005C30.208 33.3005 31.4504 32.058 31.4504 30.5254C31.4504 28.9928 30.208 27.7504 28.6754 27.7504C27.1428 27.7504 25.9003 28.9928 25.9003 30.5254C25.9003 32.058 27.1428 33.3005 28.6754 33.3005Z" fill="white"/>
</svg>
