<svg width="473" height="214" viewBox="0 0 473 214" fill="none" xmlns="http://www.w3.org/2000/svg">
<circle cx="3.52747" cy="210.472" r="3.52747" transform="rotate(-90 3.52747 210.472)" fill="#70C217"/>
<circle cx="3.52747" cy="158.736" r="3.52747" transform="rotate(-90 3.52747 158.736)" fill="#70C217"/>
<circle cx="3.52747" cy="107" r="3.52747" transform="rotate(-90 3.52747 107)" fill="#70C217"/>
<circle cx="3.52747" cy="55.2638" r="3.52747" transform="rotate(-90 3.52747 55.2638)" fill="#70C217"/>
<circle cx="3.52747" cy="3.52749" r="3.52747" transform="rotate(-90 3.52747 3.52749)" fill="#70C217"/>
<circle cx="55.2637" cy="210.473" r="3.52747" transform="rotate(-90 55.2637 210.473)" fill="#70C217"/>
<circle cx="55.2637" cy="158.736" r="3.52747" transform="rotate(-90 55.2637 158.736)" fill="#70C217"/>
<circle cx="55.2637" cy="107" r="3.52747" transform="rotate(-90 55.2637 107)" fill="#70C217"/>
<circle cx="55.2637" cy="55.2638" r="3.52747" transform="rotate(-90 55.2637 55.2638)" fill="#70C217"/>
<circle cx="55.2637" cy="3.52749" r="3.52747" transform="rotate(-90 55.2637 3.52749)" fill="#70C217"/>
<circle cx="107" cy="210.473" r="3.52747" transform="rotate(-90 107 210.473)" fill="#70C217"/>
<circle cx="107" cy="158.736" r="3.52747" transform="rotate(-90 107 158.736)" fill="#70C217"/>
<circle cx="107" cy="107" r="3.52747" transform="rotate(-90 107 107)" fill="#70C217"/>
<circle cx="107" cy="55.2637" r="3.52747" transform="rotate(-90 107 55.2637)" fill="#70C217"/>
<circle cx="107" cy="3.52749" r="3.52747" transform="rotate(-90 107 3.52749)" fill="#70C217"/>
<circle cx="158.736" cy="210.473" r="3.52747" transform="rotate(-90 158.736 210.473)" fill="#70C217"/>
<circle cx="158.736" cy="158.736" r="3.52747" transform="rotate(-90 158.736 158.736)" fill="#70C217"/>
<circle cx="158.736" cy="107" r="3.52747" transform="rotate(-90 158.736 107)" fill="#70C217"/>
<circle cx="158.736" cy="55.2637" r="3.52747" transform="rotate(-90 158.736 55.2637)" fill="#70C217"/>
<circle cx="158.736" cy="3.52749" r="3.52747" transform="rotate(-90 158.736 3.52749)" fill="#70C217"/>
<circle cx="210.473" cy="210.473" r="3.52747" transform="rotate(-90 210.473 210.473)" fill="#70C217"/>
<circle cx="210.472" cy="158.736" r="3.52747" transform="rotate(-90 210.472 158.736)" fill="#70C217"/>
<circle cx="210.472" cy="107" r="3.52747" transform="rotate(-90 210.472 107)" fill="#70C217"/>
<circle cx="210.472" cy="55.2637" r="3.52747" transform="rotate(-90 210.472 55.2637)" fill="#70C217"/>
<circle cx="210.472" cy="3.52747" r="3.52747" transform="rotate(-90 210.472 3.52747)" fill="#70C217"/>
<circle cx="262.209" cy="210.473" r="3.52747" transform="rotate(-90 262.209 210.473)" fill="#70C217"/>
<circle cx="262.209" cy="158.736" r="3.52747" transform="rotate(-90 262.209 158.736)" fill="#70C217"/>
<circle cx="262.209" cy="107" r="3.52747" transform="rotate(-90 262.209 107)" fill="#70C217"/>
<circle cx="262.209" cy="55.2637" r="3.52747" transform="rotate(-90 262.209 55.2637)" fill="#70C217"/>
<circle cx="262.209" cy="3.52747" r="3.52747" transform="rotate(-90 262.209 3.52747)" fill="#70C217"/>
<circle cx="313.945" cy="210.473" r="3.52747" transform="rotate(-90 313.945 210.473)" fill="#70C217"/>
<circle cx="313.945" cy="158.736" r="3.52747" transform="rotate(-90 313.945 158.736)" fill="#70C217"/>
<circle cx="313.945" cy="107" r="3.52747" transform="rotate(-90 313.945 107)" fill="#70C217"/>
<circle cx="313.945" cy="55.2637" r="3.52747" transform="rotate(-90 313.945 55.2637)" fill="#70C217"/>
<circle cx="313.945" cy="3.52747" r="3.52747" transform="rotate(-90 313.945 3.52747)" fill="#70C217"/>
<circle cx="365.681" cy="210.473" r="3.52747" transform="rotate(-90 365.681 210.473)" fill="#70C217"/>
<circle cx="365.681" cy="158.736" r="3.52747" transform="rotate(-90 365.681 158.736)" fill="#70C217"/>
<circle cx="365.681" cy="107" r="3.52747" transform="rotate(-90 365.681 107)" fill="#70C217"/>
<circle cx="365.681" cy="55.2637" r="3.52747" transform="rotate(-90 365.681 55.2637)" fill="#70C217"/>
<circle cx="365.681" cy="3.52747" r="3.52747" transform="rotate(-90 365.681 3.52747)" fill="#70C217"/>
<circle cx="417.417" cy="210.473" r="3.52747" transform="rotate(-90 417.417 210.473)" fill="#70C217"/>
<circle cx="417.417" cy="158.736" r="3.52747" transform="rotate(-90 417.417 158.736)" fill="#70C217"/>
<circle cx="417.417" cy="107" r="3.52747" transform="rotate(-90 417.417 107)" fill="#70C217"/>
<circle cx="417.417" cy="55.2637" r="3.52747" transform="rotate(-90 417.417 55.2637)" fill="#70C217"/>
<circle cx="417.417" cy="3.52747" r="3.52747" transform="rotate(-90 417.417 3.52747)" fill="#70C217"/>
<circle cx="469.154" cy="210.473" r="3.52747" transform="rotate(-90 469.154 210.473)" fill="#70C217"/>
<circle cx="469.154" cy="158.736" r="3.52747" transform="rotate(-90 469.154 158.736)" fill="#70C217"/>
<circle cx="469.154" cy="107" r="3.52747" transform="rotate(-90 469.154 107)" fill="#70C217"/>
<circle cx="469.154" cy="55.2637" r="3.52747" transform="rotate(-90 469.154 55.2637)" fill="#70C217"/>
<circle cx="469.154" cy="3.52747" r="3.52747" transform="rotate(-90 469.154 3.52747)" fill="#70C217"/>
</svg>
