<svg width="21" height="20" viewBox="0 0 21 20" fill="none" xmlns="http://www.w3.org/2000/svg">
<path fill-rule="evenodd" clip-rule="evenodd" d="M2.02304 0C11.9749 0 20.0743 8.07576 20.1165 18.0176V18.0182H20.118V19.0701H20.1062C20.0798 19.3033 19.9755 19.5209 19.81 19.6874C19.6445 19.8539 19.4277 19.9596 19.1946 19.9875V19.9999H17.3243V19.9978C17.0713 19.9925 16.8288 19.8955 16.642 19.7247C16.4552 19.554 16.3368 19.3213 16.3088 19.0698H16.297V18.0179H16.3076C16.2654 10.1756 9.87469 3.80861 2.02273 3.80861C2.01528 3.80861 2.00783 3.80807 2.00037 3.80752C1.99416 3.80707 1.98795 3.80662 1.98174 3.80648V3.82106H0.929832V3.80922C0.696544 3.78293 0.478983 3.67858 0.312456 3.5131C0.145929 3.34762 0.0402086 3.13072 0.0124505 2.8976H0V1.02731H0.00212567C0.00741948 0.774312 0.10445 0.531853 0.275161 0.345054C0.445872 0.158255 0.678636 0.0398392 0.930136 0.0118429V0H1.98204V0.00212567C1.98822 0.00198836 1.99434 0.00154061 2.00048 0.00109124C2.00792 0.000546809 2.01539 0 2.02304 0ZM2.02304 7.20619C2.01539 7.20619 2.00792 7.20674 2.00048 7.20728L2.00047 7.20728C1.99433 7.20773 1.98822 7.20818 1.98204 7.20832V7.20619H0.930136V7.21804C0.678636 7.24603 0.445872 7.36445 0.275161 7.55125C0.10445 7.73805 0.00741948 7.9805 0.00212567 8.2335H0V10.1038H0.0124505C0.0402608 10.3369 0.145998 10.5538 0.312515 10.7192C0.479032 10.8847 0.696564 10.9891 0.929832 11.0154V11.0273H1.98174V11.0127C1.98795 11.0128 1.99416 11.0133 2.00037 11.0137C2.00782 11.0143 2.01528 11.0148 2.02273 11.0148C5.90119 11.0148 9.05964 14.149 9.10155 18.0177H9.09153V19.0696H9.10337C9.13137 19.3211 9.24978 19.5539 9.43658 19.7246C9.62338 19.8953 9.86584 19.9923 10.1188 19.9976V19.9997H11.9888V19.9873C12.2219 19.9595 12.4388 19.8537 12.6043 19.6872C12.7697 19.5207 12.8741 19.3032 12.9004 19.0699H12.9123V18.018H12.9105C12.8689 12.0488 8.00136 7.20619 2.02304 7.20619ZM2.84948 14.5393C2.49924 14.5393 2.15244 14.6083 1.82888 14.7424C1.50532 14.8764 1.21135 15.0729 0.963753 15.3207C0.716157 15.5684 0.519791 15.8624 0.385873 16.186C0.251955 16.5097 0.183109 16.8565 0.183269 17.2067C0.183269 17.5569 0.252248 17.9037 0.386268 18.2273C0.520288 18.5508 0.716724 18.8448 0.964361 19.0925C1.212 19.3401 1.50599 19.5365 1.82954 19.6705C2.15309 19.8046 2.49987 19.8735 2.85008 19.8735C3.2003 19.8735 3.54708 19.8046 3.87063 19.6705C4.19418 19.5365 4.48817 19.3401 4.73581 19.0925C4.98344 18.8448 5.17988 18.5508 5.3139 18.2273C5.44792 17.9037 5.5169 17.5569 5.5169 17.2067C5.51706 16.8564 5.44817 16.5095 5.31418 16.1858C5.18018 15.8621 4.98371 15.5679 4.73599 15.3202C4.48826 15.0725 4.19414 14.876 3.87044 14.742C3.54675 14.608 3.19981 14.5391 2.84948 14.5393Z" fill="#272D4E"/>
</svg>
