<svg width="251" height="553" viewBox="0 0 251 553" fill="none" xmlns="http://www.w3.org/2000/svg">
<circle cx="4.1276" cy="4.12687" r="4.12687" fill="#29AAF3"/>
<circle cx="64.654" cy="4.12687" r="4.12687" fill="#29AAF3"/>
<circle cx="125.182" cy="4.12687" r="4.12687" fill="#29AAF3"/>
<circle cx="185.709" cy="4.12687" r="4.12687" fill="#29AAF3"/>
<circle cx="246.236" cy="4.12687" r="4.12687" fill="#29AAF3"/>
<circle cx="4.12687" cy="64.6543" r="4.12687" fill="#29AAF3"/>
<circle cx="64.654" cy="64.6543" r="4.12687" fill="#29AAF3"/>
<circle cx="125.182" cy="64.6543" r="4.12687" fill="#29AAF3"/>
<circle cx="185.709" cy="64.6543" r="4.12687" fill="#29AAF3"/>
<circle cx="246.236" cy="64.6543" r="4.12687" fill="#29AAF3"/>
<circle cx="4.12687" cy="125.182" r="4.12687" fill="#29AAF3"/>
<circle cx="64.654" cy="125.182" r="4.12687" fill="#29AAF3"/>
<circle cx="125.182" cy="125.182" r="4.12687" fill="#29AAF3"/>
<circle cx="185.709" cy="125.182" r="4.12687" fill="#29AAF3"/>
<circle cx="246.236" cy="125.182" r="4.12687" fill="#29AAF3"/>
<circle cx="4.12687" cy="185.709" r="4.12687" fill="#29AAF3"/>
<circle cx="64.654" cy="185.709" r="4.12687" fill="#29AAF3"/>
<circle cx="125.182" cy="185.709" r="4.12687" fill="#29AAF3"/>
<circle cx="185.709" cy="185.709" r="4.12687" fill="#29AAF3"/>
<circle cx="246.236" cy="185.709" r="4.12687" fill="#29AAF3"/>
<circle cx="4.12687" cy="246.236" r="4.12687" fill="#29AAF3"/>
<circle cx="64.654" cy="246.236" r="4.12687" fill="#29AAF3"/>
<circle cx="125.182" cy="246.236" r="4.12687" fill="#29AAF3"/>
<circle cx="185.709" cy="246.236" r="4.12687" fill="#29AAF3"/>
<circle cx="246.236" cy="246.236" r="4.12687" fill="#29AAF3"/>
<circle cx="4.12687" cy="306.764" r="4.12687" fill="#29AAF3"/>
<circle cx="64.654" cy="306.764" r="4.12687" fill="#29AAF3"/>
<circle cx="125.182" cy="306.764" r="4.12687" fill="#29AAF3"/>
<circle cx="185.709" cy="306.764" r="4.12687" fill="#29AAF3"/>
<circle cx="246.236" cy="306.764" r="4.12687" fill="#29AAF3"/>
<circle cx="4.12687" cy="367.291" r="4.12687" fill="#29AAF3"/>
<circle cx="64.654" cy="367.291" r="4.12687" fill="#29AAF3"/>
<circle cx="125.182" cy="367.291" r="4.12687" fill="#29AAF3"/>
<circle cx="185.709" cy="367.291" r="4.12687" fill="#29AAF3"/>
<circle cx="246.236" cy="367.291" r="4.12687" fill="#29AAF3"/>
<circle cx="4.12687" cy="427.819" r="4.12687" fill="#29AAF3"/>
<circle cx="64.654" cy="427.819" r="4.12687" fill="#29AAF3"/>
<circle cx="125.182" cy="427.819" r="4.12687" fill="#29AAF3"/>
<circle cx="185.709" cy="427.819" r="4.12687" fill="#29AAF3"/>
<circle cx="246.236" cy="427.819" r="4.12687" fill="#29AAF3"/>
<circle cx="4.12687" cy="488.346" r="4.12687" fill="#29AAF3"/>
<circle cx="64.654" cy="488.346" r="4.12687" fill="#29AAF3"/>
<circle cx="125.182" cy="488.346" r="4.12687" fill="#29AAF3"/>
<circle cx="185.709" cy="488.346" r="4.12687" fill="#29AAF3"/>
<circle cx="246.236" cy="488.346" r="4.12687" fill="#29AAF3"/>
<circle cx="4.12687" cy="548.873" r="4.12687" fill="#29AAF3"/>
<circle cx="64.654" cy="548.873" r="4.12687" fill="#29AAF3"/>
<circle cx="125.182" cy="548.873" r="4.12687" fill="#29AAF3"/>
<circle cx="185.709" cy="548.873" r="4.12687" fill="#29AAF3"/>
<circle cx="246.236" cy="548.873" r="4.12687" fill="#29AAF3"/>
</svg>
