<svg width="30" height="29" viewBox="0 0 30 29" fill="none" xmlns="http://www.w3.org/2000/svg">
<path d="M28.8416 12.5622C29.9613 12.5622 30.4287 11.1038 29.5192 10.4315L15.6811 0.225932C15.4835 0.0791381 15.2449 0 14.9999 0C14.7549 0 14.5163 0.0791381 14.3187 0.225932L0.480637 10.4315C-0.428856 11.1001 0.0385731 12.5622 1.16185 12.5622H3.40478V26.3019H0.79588C0.636447 26.3019 0.506002 26.4341 0.506002 26.5958V28.5061C0.506002 28.6678 0.636447 28.8 0.79588 28.8H29.204C29.3634 28.8 29.4938 28.6678 29.4938 28.5061V26.5958C29.4938 26.4341 29.3634 26.3019 29.204 26.3019H26.595V12.5622H28.8416ZM10.2532 26.3019H6.01369V12.5622H10.2532V26.3019ZM17.1015 26.3019H12.8621V12.5622H17.1015V26.3019ZM23.9861 26.3019H19.7104V12.5622H23.9861V26.3019Z" fill="#0D3883"/>
</svg>
