<svg width="8" height="8" viewBox="0 0 8 8" fill="none" xmlns="http://www.w3.org/2000/svg">
<path fill-rule="evenodd" clip-rule="evenodd" d="M6.66669 2.66668H5.33335V1.33334C5.33335 0.597335 4.73602 0 4.00001 0C3.26401 0 2.66668 0.597335 2.66668 1.33334V2.66668H1.33334C0.597335 2.66668 0 3.26401 0 4.00001C0 4.73602 0.597335 5.33335 1.33334 5.33335H2.66668V6.66669C2.66668 7.40269 3.26401 8.00003 4.00001 8.00003C4.73602 8.00003 5.33335 7.40269 5.33335 6.66669V5.33335H6.66669C7.40269 5.33335 8.00003 4.73602 8.00003 4.00001C8.00003 3.26401 7.40269 2.66668 6.66669 2.66668Z" fill="#222222"/>
</svg>
