<svg width="32" height="16" viewBox="0 0 32 16" fill="none" xmlns="http://www.w3.org/2000/svg">
<path opacity="0.3" fill-rule="evenodd" clip-rule="evenodd" d="M8.15611 0.0843345C8.29029 0.140011 8.41216 0.221611 8.51475 0.324461C8.6176 0.427051 8.6992 0.548924 8.75488 0.683099C8.81055 0.817274 8.83921 0.961115 8.83921 1.10638C8.83921 1.25165 8.81055 1.39549 8.75488 1.52967C8.6992 1.66384 8.6176 1.78571 8.51475 1.8883L3.77287 6.62839H30.8956C31.1885 6.62839 31.4694 6.74475 31.6765 6.95187C31.8836 7.15898 32 7.43989 32 7.7328C32 8.02571 31.8836 8.30662 31.6765 8.51374C31.4694 8.72085 31.1885 8.83721 30.8956 8.83721H3.77281L8.51475 13.5774C8.72213 13.7847 8.83863 14.066 8.83863 14.3593C8.83863 14.6526 8.72213 14.9338 8.51475 15.1412C8.30737 15.3486 8.02611 15.4651 7.73283 15.4651C7.43955 15.4651 7.15829 15.3486 6.95091 15.1412L0.324455 8.51476C0.221607 8.41217 0.140006 8.29029 0.0843301 8.15612C0.0286538 8.02194 -5.77076e-06 7.8781 -5.77076e-06 7.73284C-5.77076e-06 7.58757 0.0286538 7.44373 0.0843301 7.30955C0.140006 7.17538 0.221607 7.0535 0.324455 6.95091L6.95091 0.324461C7.0535 0.221611 7.17537 0.140011 7.30955 0.0843345C7.44372 0.028658 7.58756 0 7.73283 0C7.8781 0 8.02194 0.028658 8.15611 0.0843345Z" fill="black"/>
</svg>
