<svg width="32" height="36" viewBox="0 0 32 36" fill="none" xmlns="http://www.w3.org/2000/svg">
<path d="M15.0996 34.8599C15.6209 35.1382 16.2752 35.1365 16.7966 34.8581C31.0034 27.2263 32.0123 12.3155 31.9999 8.07579C31.9986 7.73504 31.8979 7.40207 31.7102 7.11767C31.5224 6.83328 31.2559 6.6098 30.9431 6.4746L16.6689 0.151396C16.4417 0.0512628 16.1961 -0.000304004 15.9479 1.34821e-06C15.6996 0.000306701 15.4542 0.0524773 15.2273 0.153169L1.05238 6.47637C0.744192 6.61164 0.481388 6.83266 0.295275 7.11308C0.109162 7.39351 0.00758616 7.72153 0.00264942 8.05806C-0.0576391 12.2765 0.79172 27.2192 15.0996 34.8599ZM10.1098 14.5373L14.1758 18.6032L21.7881 10.9909L24.2954 13.4982L14.1758 23.6178L7.60255 17.0446L10.1098 14.5373Z" fill="white"/>
</svg>
